<svg width="2058" height="553" viewBox="0 0 2058 553" fill="none" xmlns="http://www.w3.org/2000/svg">
<path d="M17.5 195.5L9.5 171L51 163.5C66.3333 162.333 98 160 102 160H192L280 175L318.5 190.5L303 211.5L157.5 249L40.5 255L43.5 235.5L71.5 243.5L75 228.5L102 235.5L106.5 228.5L125 235.5L129 221.5L157.5 225V211.5L178 221.5L202.5 203L225.5 216V203L285.5 200L272.5 187.5L248.5 200L240 187.5L218.5 195.5L208 181L186 203L173.5 187.5L148 203L140 181L121.5 203L102 171L82.5 195.5L67.5 171L43.5 195.5L36 171L17.5 195.5Z" fill="#D9D9D9"/>
<path d="M410.5 11L378.5 72L401 120L844.5 156.5L1226.5 203L1951 253.5V217.5L1890 233.5L1868.5 203L1815 233.5L1791.5 180L1741.5 217.5L1707.5 156.5L1644.5 194L1632 140.5L1581.5 194L1562 140.5L1486.5 180V128L1413 140.5L1404 95.5L1314.5 110V58L1266 95.5L1226.5 33L1106.5 72V11L997 58L981 0.5L896.5 58L871.5 0.5L785.5 58L726.5 0.5L678 58L636.5 0.5L586.5 72L565 0.5L482.5 72L410.5 11Z" fill="#C4C4C4"/>
<path fill-rule="evenodd" clip-rule="evenodd" d="M866.5 53C846.493 53 826.723 53.2405 807.24 53.7099C786.818 53.2427 766.22 53 745.5 53C385.135 53 65.0004 103 30.5 130C5.9912 149.181 -2.78433 164.033 0.858762 175.514L316.029 189.2L20.0342 254.858C60.4755 286.2 183.728 309 329.5 309C395.213 309 456.35 304.367 507.388 296.406C605.973 314.932 730.768 326 866.5 326C1052.18 326 1217.39 305.287 1323.04 273.104C1554.4 300.871 2058 281 2058 281C2058 281 1657 177 1471 177C1461.29 177 1451.43 176.852 1441.48 176.667C1414.12 107.298 1167.14 53 866.5 53Z" fill="#45A360"/>
<path d="M370.837 502.346L332.77 258.528L495.3 289.261L370.837 502.346Z" fill="#45A360"/>
<path d="M492.837 506.346L454.77 262.528L617.3 293.261L492.837 506.346Z" fill="#45A360"/>
<path d="M1004.84 528.346L966.77 284.528L1129.3 315.261L1004.84 528.346Z" fill="#45A360"/>
<path d="M1236.7 524.374L1081.56 305.478L1239.43 256.092L1236.7 524.374Z" fill="#45A360"/>
</svg>
